<?xml version="1.0" encoding="utf-8"?>
<!-- Generator: Adobe Illustrator 22.0.1, SVG Export Plug-In . SVG Version: 6.00 Build 0)  -->
<!DOCTYPE svg PUBLIC "-//W3C//DTD SVG 1.1//EN" "http://www.w3.org/Graphics/SVG/1.1/DTD/svg11.dtd">
<svg version="1.1" id="Layer_1" xmlns="http://www.w3.org/2000/svg" xmlns:xlink="http://www.w3.org/1999/xlink" x="0px" y="0px"
	 viewBox="0 0 512 512" style="enable-background:new 0 0 512 512;" xml:space="preserve">
<style type="text/css">
	.st0{fill:#FFFFFF;}
	.st1{fill:#E30613;}
	.st2{fill:#009FE3;}
	.st3{fill:#1D1D1B;}
</style>
<g>
	<path class="st0" d="M364,512.4H147.7C66,512.4-0.1,446.3-0.1,364.6V148.3C-0.1,66.6,66,0.4,147.7,0.4H364
		c81.6,0,147.8,66.2,147.8,147.8v216.4C511.9,446.3,445.7,512.4,364,512.4z"/>
	<path class="st1" d="M216.9,295.6c-8.1,5.9-18.1,9.5-29,9.5c-27.2,0-49.2-22-49.2-49.2s22-49.2,49.2-49.2
		c12.5,0,23.9,4.7,32.6,12.4l26.6-27c-15.5-14.4-36.3-23.3-59.2-23.3c-48.1,0-87,39-87,87c0,48.1,39,87,87,87
		c21.3,0,40.7-7.7,55.8-20.4L216.9,295.6z"/>
	<path class="st2" d="M257.6,336.3c-18.7,16.2-43,26-69.7,26c-58.8,0-106.4-47.7-106.4-106.4c0-58.8,47.7-106.4,106.4-106.4
		c28.1,0,53.7,10.9,72.8,28.8l8.5-8.5l18.2-18.5c-25.9-24.6-60.9-39.8-99.5-39.8c-79.7,0-144.4,64.6-144.4,144.4
		S108.2,400.2,188,400.2c37.1,0,71-14,96.6-37.1L257.6,336.3z"/>
	<path class="st3" d="M461.4,187.8L351,74.3l-1,138.4l-48.9-46.9L275,192l66.6,65.6l-68.7,65.8l26.1,26.1l50.4-46.8l-1,138.7
		l112.5-112.8l-66.7-70.6L461.4,187.8z M387.4,164l23.8,24l-24,23.8L387.4,164z M410.6,326.9l-24,23.8l0.2-47.8L410.6,326.9z"/>
</g>
</svg>
