<?xml version="1.0" encoding="utf-8"?>
<!-- Generator: Adobe Illustrator 22.0.1, SVG Export Plug-In . SVG Version: 6.00 Build 0)  -->
<!DOCTYPE svg PUBLIC "-//W3C//DTD SVG 1.1//EN" "http://www.w3.org/Graphics/SVG/1.1/DTD/svg11.dtd">
<svg version="1.1" id="Layer_1" xmlns="http://www.w3.org/2000/svg" xmlns:xlink="http://www.w3.org/1999/xlink" x="0px" y="0px"
	 viewBox="0 0 750 1334" style="enable-background:new 0 0 750 1334;" xml:space="preserve">
<style type="text/css">
	.st0{fill:#009EE2;}
	.st1{fill:#E20613;}
	.st2{fill:#FFFFFF;}
	.st3{fill:#E10A17;}
	.st4{fill:#189CD8;}
	.st5{fill:#1D1E1C;}
</style>
<g>
	<g>
		<path class="st0" d="M212.3,763.5c-0.6,0.4-1.4,0.9-2.5,1.5c-1.1,0.6-2.4,1.2-4.1,1.8c-1.6,0.6-3.6,1.1-5.8,1.5
			c-2.2,0.4-4.7,0.6-7.5,0.6c-4,0-7.7-0.6-11.2-1.8c-3.5-1.2-6.6-3-9.3-5.3c-2.7-2.4-4.8-5.3-6.3-8.9c-1.6-3.5-2.3-7.7-2.3-12.4
			c0-4.6,0.8-8.7,2.3-12.2c1.5-3.6,3.6-6.6,6.2-9c2.6-2.5,5.7-4.3,9.2-5.6c3.5-1.3,7.3-1.9,11.4-1.9c2.2,0,4.1,0.1,5.9,0.4
			c1.7,0.3,3.3,0.6,4.6,1c1.3,0.4,2.5,0.9,3.4,1.3c1,0.5,1.7,0.9,2.3,1.3c1.2,0.9,2.1,1.8,2.6,2.8c0.5,1,0.8,2,0.8,3
			c0,1-0.2,2-0.6,2.9c-0.4,0.9-0.9,1.7-1.4,2.4c-0.6,0.7-1.1,1.3-1.7,1.8c-0.6,0.5-1,0.9-1.4,1.1c-0.5-0.5-1.2-1.1-2-1.9
			c-0.8-0.7-1.8-1.4-3-1.9c-1.2-0.6-2.5-1.1-4-1.5c-1.5-0.4-3.2-0.6-5-0.6c-2.3,0-4.4,0.4-6.3,1.1c-1.9,0.8-3.6,1.9-5,3.3
			c-1.4,1.5-2.5,3.2-3.2,5.3c-0.8,2.1-1.1,4.4-1.1,7c0,2.6,0.4,5,1.3,7c0.8,2,2,3.7,3.5,5c1.5,1.3,3.2,2.4,5.3,3c2,0.7,4.2,1,6.6,1
			c3,0,5.5-0.4,7.6-1.1c2.1-0.7,3.8-1.5,4.9-2.3l5.9,10.2H212.3z"/>
		<path class="st0" d="M226,752.6c0.1,0.6,0.4,1.3,0.8,1.9c0.4,0.6,1.1,1.2,1.9,1.7c0.8,0.5,1.9,1,3.1,1.3c1.3,0.3,2.8,0.5,4.6,0.5
			c1.4,0,2.7-0.1,3.9-0.4c1.2-0.2,2.3-0.5,3.2-0.8c0.9-0.3,1.6-0.5,2.2-0.8c0.6-0.3,0.9-0.4,1-0.6l4.4,8.9c-0.4,0.3-1.1,0.6-2.1,1.1
			c-1,0.5-2.2,1-3.7,1.4c-1.5,0.5-3.2,0.9-5.2,1.2c-2,0.3-4.2,0.5-6.5,0.5c-3,0-5.7-0.5-8.3-1.4c-2.6-1-4.8-2.3-6.8-4.2
			c-1.9-1.8-3.4-4.1-4.6-6.7c-1.1-2.6-1.7-5.6-1.7-9c0-3.2,0.6-6.1,1.7-8.7c1.1-2.6,2.6-4.9,4.6-6.7c2-1.8,4.2-3.3,6.9-4.3
			c2.6-1,5.5-1.5,8.6-1.5c2.9,0,5.4,0.4,7.7,1.1c2.3,0.8,4.2,1.8,5.7,3.1c1.6,1.3,2.7,2.8,3.6,4.5c0.8,1.7,1.2,3.4,1.2,5.2
			c0,2-0.3,3.7-1,5.3c-0.7,1.6-1.9,2.9-3.7,4c-1.8,1.1-4.2,1.9-7.2,2.5c-3,0.6-6.9,0.9-11.6,0.9H226z M225.3,744.4
			c3.5,0,6.3-0.1,8.2-0.4c2-0.3,3.4-0.6,4.4-1c1-0.4,1.5-0.9,1.7-1.4c0.2-0.5,0.3-1.1,0.3-1.6c0-1.1-0.5-2.1-1.5-2.9
			c-1-0.8-2.5-1.2-4.5-1.2c-1.4,0-2.7,0.3-3.7,0.8c-1.1,0.5-1.9,1.1-2.7,1.9s-1.3,1.7-1.6,2.7C225.6,742.3,225.4,743.3,225.3,744.4z
			"/>
		<path class="st0" d="M255.3,743c0-2.7,0.5-5.2,1.6-7.3c1.1-2.1,2.5-3.9,4.4-5.3c1.8-1.4,4-2.5,6.4-3.2c2.4-0.7,5-1.1,7.8-1.1
			c2.7,0,5.3,0.4,7.8,1.1c2.5,0.7,4.6,1.8,6.4,3.2c1.8,1.4,3.3,3.2,4.3,5.3c1.1,2.1,1.6,4.6,1.6,7.3v24.5h-12.8V746
			c0-2.8-0.6-4.9-1.9-6.2c-1.3-1.3-3.1-2-5.5-2c-5,0-7.4,2.7-7.4,8.2v21.5h-12.8V743z"/>
		<path class="st0" d="M302.3,720.9c0-2.1,0.6-3.5,1.8-4.4c1.2-0.8,2.8-1.3,4.8-1.3c1.4,0,2.7,0.2,3.9,0.5c1.2,0.3,1.9,0.6,2.2,0.7
			v10.7h9.1c2.4,0,4.1,0.5,5.1,1.4c1,1,1.5,2.4,1.5,4.3c0,1.4-0.2,2.7-0.6,3.8c-0.4,1.2-0.7,2-1,2.3H315v12.4c0,1.2,0.2,2.2,0.6,2.9
			c0.4,0.7,0.8,1.3,1.4,1.7c0.6,0.4,1.2,0.7,1.9,0.8c0.7,0.1,1.4,0.2,2.2,0.2c1.5,0,2.8-0.2,4-0.7c1.2-0.4,2.1-0.8,2.6-1.1l5,8.7
			c-0.5,0.4-1.2,0.9-2.1,1.4c-0.9,0.5-2,1-3.2,1.5c-1.3,0.5-2.7,0.9-4.3,1.2c-1.6,0.3-3.2,0.5-5,0.5c-5,0-8.8-1.3-11.6-3.9
			c-2.8-2.6-4.2-6.1-4.2-10.5V720.9z"/>
		<path class="st0" d="M335.5,742.2c0-2.6,0.4-4.9,1.3-6.9c0.9-2,2.1-3.7,3.6-5.1c1.5-1.4,3.4-2.4,5.5-3.1c2.2-0.7,4.5-1.1,7.1-1.1
			c3.2,0,5.6,0.3,7.4,1c1.8,0.7,3,1.4,3.8,2.2c0.5,0.5,0.8,1.1,1.1,1.7c0.3,0.6,0.4,1.3,0.4,2.1s-0.1,1.5-0.4,2.2
			c-0.2,0.7-0.5,1.3-0.9,1.8c-0.3,0.5-0.7,1-1,1.3c-0.3,0.4-0.6,0.6-0.7,0.8c-0.9-0.4-2-0.8-3.2-1.2c-1.3-0.4-2.7-0.6-4.2-0.6
			c-2,0-3.7,0.6-5.1,1.7c-1.4,1.2-2.1,3.1-2.1,5.8v22.6h-12.8V742.2z"/>
		<path class="st0" d="M367.9,716.3c0-2,0.7-3.7,2-5.1c1.3-1.4,3-2.1,5-2.1c2,0,3.7,0.7,5.1,2.1c1.4,1.4,2.1,3.1,2.1,5.1
			s-0.7,3.7-2.1,5c-1.4,1.3-3.1,2-5.1,2c-2,0-3.7-0.7-5-2C368.5,720,367.9,718.3,367.9,716.3z M368.6,732.7c0-2.1,0.6-3.5,1.8-4.4
			c1.2-0.8,2.8-1.3,4.8-1.3c1.4,0,2.7,0.2,3.9,0.5c1.2,0.3,1.9,0.6,2.2,0.7v39.2h-12.8V732.7z"/>
		<path class="st1" d="M436.4,763.5c-0.6,0.4-1.4,0.9-2.5,1.5c-1.1,0.6-2.4,1.2-4.1,1.8c-1.6,0.6-3.6,1.1-5.8,1.5
			c-2.2,0.4-4.7,0.6-7.5,0.6c-4,0-7.7-0.6-11.2-1.8c-3.5-1.2-6.6-3-9.3-5.3s-4.8-5.3-6.3-8.9c-1.6-3.5-2.3-7.7-2.3-12.4
			c0-4.6,0.8-8.7,2.3-12.2c1.5-3.6,3.6-6.6,6.2-9s5.7-4.3,9.2-5.6c3.5-1.3,7.3-1.9,11.4-1.9c2.2,0,4.1,0.1,5.9,0.4
			c1.7,0.3,3.3,0.6,4.6,1c1.3,0.4,2.5,0.9,3.4,1.3c1,0.5,1.7,0.9,2.3,1.3c1.2,0.9,2.1,1.8,2.6,2.8c0.5,1,0.8,2,0.8,3
			c0,1-0.2,2-0.6,2.9c-0.4,0.9-0.9,1.7-1.4,2.4c-0.6,0.7-1.1,1.3-1.7,1.8c-0.6,0.5-1,0.9-1.4,1.1c-0.5-0.5-1.2-1.1-2-1.9
			c-0.8-0.7-1.8-1.4-3-1.9c-1.2-0.6-2.5-1.1-4-1.5c-1.5-0.4-3.2-0.6-5-0.6c-2.3,0-4.4,0.4-6.3,1.1c-1.9,0.8-3.6,1.9-5,3.3
			c-1.4,1.5-2.5,3.2-3.2,5.3c-0.8,2.1-1.1,4.4-1.1,7c0,2.6,0.4,5,1.3,7c0.8,2,2,3.7,3.5,5c1.5,1.3,3.2,2.4,5.3,3c2,0.7,4.2,1,6.6,1
			c3,0,5.5-0.4,7.6-1.1c2.1-0.7,3.8-1.5,4.9-2.3l5.9,10.2H436.4z"/>
		<path class="st1" d="M440,714.8c0-2.1,0.6-3.5,1.8-4.4c1.2-0.8,2.8-1.3,4.8-1.3c1.4,0,2.7,0.2,3.9,0.5c1.2,0.3,1.9,0.6,2.2,0.7
			v57.2H440V714.8z"/>
		<path class="st1" d="M471.9,752.6c0.1,0.6,0.4,1.3,0.8,1.9c0.4,0.6,1.1,1.2,1.9,1.7c0.8,0.5,1.9,1,3.1,1.3
			c1.3,0.3,2.8,0.5,4.6,0.5c1.4,0,2.7-0.1,3.9-0.4c1.2-0.2,2.3-0.5,3.2-0.8c0.9-0.3,1.6-0.5,2.2-0.8c0.6-0.3,0.9-0.4,1-0.6l4.4,8.9
			c-0.4,0.3-1.1,0.6-2.1,1.1c-1,0.5-2.2,1-3.7,1.4c-1.5,0.5-3.2,0.9-5.2,1.2c-2,0.3-4.2,0.5-6.5,0.5c-3,0-5.7-0.5-8.3-1.4
			c-2.6-1-4.8-2.3-6.8-4.2c-1.9-1.8-3.4-4.1-4.6-6.7c-1.1-2.6-1.7-5.6-1.7-9c0-3.2,0.6-6.1,1.7-8.7c1.1-2.6,2.6-4.9,4.6-6.7
			c2-1.8,4.2-3.3,6.9-4.3c2.6-1,5.5-1.5,8.6-1.5c2.9,0,5.4,0.4,7.7,1.1c2.3,0.8,4.2,1.8,5.7,3.1c1.6,1.3,2.7,2.8,3.6,4.5
			c0.8,1.7,1.2,3.4,1.2,5.2c0,2-0.3,3.7-1,5.3c-0.7,1.6-1.9,2.9-3.7,4c-1.8,1.1-4.2,1.9-7.2,2.5c-3,0.6-6.9,0.9-11.6,0.9H471.9z
			 M471.2,744.4c3.5,0,6.3-0.1,8.2-0.4c2-0.3,3.4-0.6,4.4-1c1-0.4,1.5-0.9,1.7-1.4c0.2-0.5,0.3-1.1,0.3-1.6c0-1.1-0.5-2.1-1.5-2.9
			c-1-0.8-2.5-1.2-4.5-1.2c-1.4,0-2.7,0.3-3.7,0.8c-1.1,0.5-1.9,1.1-2.7,1.9s-1.3,1.7-1.6,2.7C471.5,742.3,471.3,743.3,471.2,744.4z
			"/>
		<path class="st1" d="M539.7,767.3c-0.3,0.1-1,0.2-2.1,0.4c-1.1,0.1-2.5,0.3-4.2,0.4c-1.7,0.2-3.6,0.3-5.7,0.4
			c-2.1,0.1-4.4,0.2-6.8,0.2c-4,0-7.3-0.4-10-1.1c-2.6-0.7-4.8-1.7-6.3-2.9c-1.6-1.2-2.7-2.6-3.3-4.2s-1-3.3-1-5.1
			c0-4.9,1.6-8.3,4.7-10.4c3.1-2.1,8.1-3.1,14.8-3.1c1.7,0,3.1,0,4.2,0.1c1.1,0.1,2.1,0.1,2.8,0.2c0-1.8-0.8-3.3-2.3-4.4
			c-1.5-1.1-4-1.6-7.5-1.6c-1.6,0-3.1,0.1-4.3,0.3c-1.2,0.2-2.3,0.4-3.2,0.7c-0.9,0.3-1.6,0.5-2.1,0.8c-0.5,0.3-0.9,0.5-1.1,0.6
			c-0.1-0.1-0.3-0.3-0.6-0.6c-0.3-0.3-0.6-0.7-1-1.2c-0.3-0.5-0.6-1.1-0.9-1.7c-0.3-0.6-0.4-1.3-0.4-2.1c0-4.6,4.7-6.9,14.1-6.9
			c3.1,0,5.9,0.3,8.6,0.8c2.7,0.6,5,1.5,7,2.9c2,1.3,3.5,3.1,4.7,5.3c1.1,2.2,1.7,5,1.7,8.3V767.3z M527,750.7
			c-0.5-0.1-1.2-0.2-2.1-0.3c-0.9-0.1-2.3-0.1-4.2-0.1c-1.6,0-2.9,0.1-3.9,0.4c-1,0.3-1.8,0.6-2.3,1.1c-0.6,0.4-0.9,1-1.1,1.5
			c-0.2,0.6-0.3,1.2-0.3,1.8c0,0.5,0.1,1,0.2,1.5c0.2,0.5,0.5,1,1,1.4c0.5,0.4,1.3,0.8,2.4,1.1c1.1,0.3,2.5,0.4,4.2,0.4
			c1.4,0,2.6,0,3.8-0.1c1.2-0.1,1.9-0.2,2.3-0.3V750.7z"/>
		<path class="st1" d="M545.3,743c0-2.7,0.5-5.2,1.6-7.3c1.1-2.1,2.5-3.9,4.4-5.3c1.8-1.4,4-2.5,6.4-3.2c2.4-0.7,5-1.1,7.8-1.1
			c2.7,0,5.3,0.4,7.8,1.1c2.5,0.7,4.6,1.8,6.4,3.2c1.8,1.4,3.3,3.2,4.3,5.3c1.1,2.1,1.6,4.6,1.6,7.3v24.5h-12.8V746
			c0-2.8-0.6-4.9-1.9-6.2c-1.3-1.3-3.1-2-5.5-2c-5,0-7.4,2.7-7.4,8.2v21.5h-12.8V743z"/>
	</g>
	<g>
		<path class="st2" d="M414,666.6l-56.7,0c-21.4,0-38.7-17.3-38.7-38.7v-56.7c0-21.4,17.3-38.7,38.7-38.7l56.6,0
			c21.4,0,38.7,17.3,38.7,38.7v56.6C452.7,649.3,435.4,666.6,414,666.6z"/>
		<g>
			<path class="st3" d="M375.4,610c-2.1,1.5-4.7,2.5-7.6,2.5c-7.1,0-12.8-5.8-12.8-12.9c0-7.1,5.8-12.9,12.9-12.9
				c3.3,0,6.3,1.3,8.5,3.3l7-7.1c-4-3.8-9.5-6.1-15.5-6.1c-12.6,0-22.8,10.2-22.8,22.8c0,12.6,10.2,22.8,22.8,22.8
				c5.6,0,10.7-2,14.6-5.3L375.4,610z"/>
			<path class="st4" d="M386.1,620.7c-4.9,4.3-11.2,6.8-18.2,6.8c-15.4,0-27.9-12.5-27.9-27.9c0-15.4,12.5-27.9,27.9-27.9
				c7.4,0,14,2.9,19.1,7.5l2.2-2.2l4.7-4.8c-6.8-6.4-15.9-10.4-26-10.4c-20.9,0-37.8,16.9-37.8,37.8c0,20.9,16.9,37.8,37.8,37.8
				c9.7,0,18.6-3.7,25.3-9.7L386.1,620.7z"/>
			<path class="st5" d="M439.4,581.8l-28.9-29.7l-0.3,36.2l-12.8-12.3l-6.8,6.8l17.5,17.2l-18,17.2l6.8,6.8l13.2-12.2l-0.3,36.3
				l29.5-29.5l-17.5-18.5L439.4,581.8z M420.1,575.6l6.2,6.3l-6.3,6.2L420.1,575.6z M426.2,618.2l-6.3,6.2l0.1-12.5L426.2,618.2z"/>
		</g>
	</g>
</g>
</svg>
